<?xml version="1.0" encoding="UTF-8"?>
<svg version="1.1" xmlns="http://www.w3.org/2000/svg" width="653" height="466">
<path d="M0 0 C215.49 0 430.98 0 653 0 C653 153.78 653 307.56 653 466 C437.51 466 222.02 466 0 466 C0 312.22 0 158.44 0 0 Z " fill="#000000" transform="translate(0,0)"/>
<path d="M0 0 C0.85045898 0.16628906 1.70091797 0.33257813 2.57714844 0.50390625 C41.49175046 8.29548396 77.03714808 27.01188799 106 54 C107.56053766 55.3564276 109.12300963 56.71063333 110.6875 58.0625 C114.84613098 61.76309995 118.43660006 65.73290343 122 70 C122.73734375 70.83789062 123.4746875 71.67578125 124.234375 72.5390625 C134.351718 84.23522654 144.4875089 97.91893817 151 112 C150.67 112.66 150.34 113.32 150 114 C149.04915527 113.75092896 149.04915527 113.75092896 148.07910156 113.49682617 C131.56009958 109.1679293 131.56009958 109.1679293 115 105 C111.54791129 116.96989277 108.14772889 128.94604997 105 141 C104.34 141 103.68 141 103 141 C102.52691406 140.05640625 102.05382812 139.1128125 101.56640625 138.140625 C97.11414722 129.4278474 92.19437826 121.617682 86 114 C85.5678418 113.46632813 85.13568359 112.93265625 84.69042969 112.3828125 C81.54205899 108.51487906 78.30859865 104.73159362 75 101 C74.24460937 100.14664063 73.48921875 99.29328125 72.7109375 98.4140625 C51.98378433 76.40481738 22.89228957 63.15488914 -6 56 C-6.67724121 55.82065918 -7.35448242 55.64131836 -8.05224609 55.45654297 C-33.57645676 48.840615 -64.27518222 51.77716766 -89 60 C-90.21429688 60.39703125 -91.42859375 60.7940625 -92.6796875 61.203125 C-115.23149866 68.92886313 -134.82820579 81.58533957 -152 98 C-152.72058594 98.65742187 -153.44117188 99.31484375 -154.18359375 99.9921875 C-166.56684376 111.6911581 -175.16717161 126.02751388 -183 141 C-183.66 141 -184.32 141 -185 141 C-185.2673999 139.9805127 -185.5347998 138.96102539 -185.81030273 137.91064453 C-186.80140532 134.13434146 -187.79540229 130.35880535 -188.7902832 126.58349609 C-189.22076352 124.94828794 -189.65045481 123.31287185 -190.0793457 121.67724609 C-190.69536156 119.32855212 -191.31419556 116.98061642 -191.93359375 114.6328125 C-192.12529648 113.89942657 -192.31699921 113.16604065 -192.51451111 112.41043091 C-193.50060017 108.61282709 -193.50060017 108.61282709 -195 105 C-212.82 109.455 -212.82 109.455 -231 114 C-228.74492799 107.23478396 -228.74492799 107.23478396 -226.75 103.93359375 C-226.31155762 103.20720703 -225.87311523 102.48082031 -225.42138672 101.73242188 C-224.9523291 100.97509766 -224.48327148 100.21777344 -224 99.4375 C-223.51160645 98.64537109 -223.02321289 97.85324219 -222.52001953 97.03710938 C-216.24893738 87.01795714 -209.08802377 77.94515445 -201.06640625 69.25390625 C-199.23259442 67.2536994 -197.48962633 65.20656762 -195.75 63.125 C-148.88193665 9.72964929 -68.88192962 -14.06997195 0 0 Z M-106 13 C-106.85899902 13.28858887 -107.71799805 13.57717773 -108.60302734 13.87451172 C-139.31995383 24.42935228 -164.50931259 41.86200667 -188 64 C-188.7321875 64.68964844 -189.464375 65.37929687 -190.21875 66.08984375 C-197.78090197 73.42693167 -204.17044989 81.71494335 -210.3125 90.25 C-210.72097168 90.81605957 -211.12944336 91.38211914 -211.55029297 91.96533203 C-214.30217534 95.84601778 -216.69266184 99.83939939 -219 104 C-209.24817929 102.36753662 -199.64256976 100.17501574 -190 98 C-187.69 106.91 -185.38 115.82 -183 125 C-182.34 125 -181.68 125 -181 125 C-179.56427041 123.09075283 -178.24323327 121.18314396 -176.9375 119.1875 C-172.64185485 112.80940837 -168.00175947 106.84700454 -163 101 C-162.28070313 100.14535156 -161.56140625 99.29070312 -160.8203125 98.41015625 C-155.4165592 92.16987886 -149.53823431 87.02102865 -143 82 C-142.46697266 81.57605957 -141.93394531 81.15211914 -141.38476562 80.71533203 C-116.48223657 60.92490752 -83.36861182 47.0752303 -51.26953125 46.76171875 C-50.44523621 46.75197021 -49.62094116 46.74222168 -48.77166748 46.73217773 C-15.79540102 46.42200992 -15.79540102 46.42200992 -2.03564453 50.41015625 C0.05010257 51.01451761 2.14578186 51.54209444 4.25390625 52.0625 C31.80373117 59.16551 55.61304127 74.52713045 76 94 C76.86625 94.81339844 77.7325 95.62679687 78.625 96.46484375 C86.47774526 104.03538097 93.35731748 112.46318732 99 121.8125 C99.66 122.864375 100.32 123.91625 101 125 C101.66 125 102.32 125 103 125 C103.9795015 121.25008738 104.95854304 117.50005481 105.9375 113.75 C106.21529297 112.68652344 106.49308594 111.62304688 106.77929688 110.52734375 C107.04677734 109.50253906 107.31425781 108.47773438 107.58984375 107.421875 C107.83597412 106.47924805 108.08210449 105.53662109 108.33569336 104.56542969 C108.90171306 102.37956602 109.45661418 100.19158097 110 98 C111.17175781 98.26554687 112.34351563 98.53109375 113.55078125 98.8046875 C122.00640105 100.70931721 130.44840858 102.56845606 139 104 C130.35281505 89.96979926 121.15483736 77.50728932 109.65917969 65.71044922 C108.17332221 64.17867796 106.71214515 62.62800806 105.2578125 61.06640625 C76.14642158 30.58350603 34.24551844 11.43139638 -7 5 C-8.00434082 4.82629883 -9.00868164 4.65259766 -10.04345703 4.47363281 C-19.80848604 2.89558837 -29.38486305 2.60056149 -39.25 2.625 C-40.07982391 2.62554382 -40.90964783 2.62608765 -41.76461792 2.62664795 C-63.93652418 2.69309695 -84.95485529 5.92841136 -106 13 Z " fill="#AB0556" transform="translate(354,20)"/>
<path d="M0 0 C0.66 0 1.32 0 2 0 C2.51046875 0.969375 3.0209375 1.93875 3.546875 2.9375 C23.83613955 40.67733893 56.72574215 68.68463132 97.76025391 81.60375977 C139.13974124 93.8089699 184.43008152 89.01974495 222.47827148 68.68725586 C230.14031546 64.424602 237.19390461 59.53716235 244 54 C244.55929199 53.54753906 245.11858398 53.09507812 245.69482422 52.62890625 C263.62428718 38.02814083 277.74038283 20.77211222 288 0 C288.66 0 289.32 0 290 0 C291.28488939 4.80466618 292.5665557 9.61017592 293.84521484 14.41650391 C294.28084784 16.05215799 294.71736776 17.68757612 295.15478516 19.32275391 C295.78259704 21.67028633 296.40723648 24.01864297 297.03125 26.3671875 C297.32654602 27.46726639 297.32654602 27.46726639 297.62780762 28.58956909 C299 33.77225659 299 33.77225659 299 36 C302.91690344 35.06348747 306.83347711 34.1256026 310.75 33.1875 C311.84183594 32.92646484 312.93367188 32.66542969 314.05859375 32.39648438 C321.38354161 30.64109746 328.696064 28.84084954 336 27 C331.17247939 39.34235233 323.50395862 49.85747652 315.39160156 60.21777344 C314.21137001 61.72929806 313.05249928 63.25746379 311.8984375 64.7890625 C278.71599002 107.48998097 227.50293852 135.09980179 174.31640625 142.4921875 C116.12521083 149.64073328 58.98193027 134.83346119 12.55859375 98.8515625 C7.83781465 95.11443528 3.40305652 91.10284812 -1 87 C-2.56053766 85.6435724 -4.12300963 84.28936667 -5.6875 82.9375 C-9.84613098 79.23690005 -13.43660006 75.26709657 -17 71 C-17.73734375 70.16210938 -18.4746875 69.32421875 -19.234375 68.4609375 C-46 37.51851115 -46 37.51851115 -46 27 C-33.56759609 29.65878172 -21.27220529 32.68024602 -9 36 C-8.846521 35.15429443 -8.846521 35.15429443 -8.68994141 34.29150391 C-7.28270878 26.88166044 -5.36902814 19.64590749 -3.375 12.375 C-3.05015625 11.18003906 -2.7253125 9.98507812 -2.390625 8.75390625 C-1.59671391 5.83511547 -0.79978098 2.91718675 0 0 Z M2 16 C1.79318604 16.78238037 1.58637207 17.56476074 1.37329102 18.37084961 C0.43988026 21.89400996 -0.49873732 25.41576211 -1.4375 28.9375 C-1.76298828 30.16919922 -2.08847656 31.40089844 -2.42382812 32.66992188 C-2.73642578 33.83974609 -3.04902344 35.00957031 -3.37109375 36.21484375 C-3.8031311 37.84087524 -3.8031311 37.84087524 -4.24389648 39.49975586 C-5 42 -5 42 -6 43 C-7.76129927 42.66058888 -9.50685158 42.23901114 -11.2421875 41.78515625 C-12.84126953 41.37426758 -12.84126953 41.37426758 -14.47265625 40.95507812 C-15.59542969 40.66052734 -16.71820313 40.36597656 -17.875 40.0625 C-20.0799003 39.48769651 -22.28559773 38.91593962 -24.4921875 38.34765625 C-25.47558105 38.08992432 -26.45897461 37.83219238 -27.47216797 37.56665039 C-30.05613117 36.89063189 -30.05613117 36.89063189 -33 37 C-28.81767663 48.48578357 -20.01484189 57.98163478 -12 67 C-11.5148291 67.54833496 -11.0296582 68.09666992 -10.52978516 68.66162109 C24.9485824 108.54403823 75.9369487 134.42078829 129.48681641 137.87988281 C137.99076422 138.28632757 146.49168382 138.20163392 155 138 C156.10770752 137.97897217 156.10770752 137.97897217 157.23779297 137.95751953 C197.93993249 137.01231782 238.81665258 120.3137611 271 96 C271.94359375 95.28972656 272.8871875 94.57945312 273.859375 93.84765625 C280.58012688 88.61445932 286.80343485 82.83355111 293 77 C293.76054687 76.30519531 294.52109375 75.61039063 295.3046875 74.89453125 C306.5676264 64.22980705 315.37288988 50.81805767 324 38 C323.67 37.34 323.34 36.68 323 36 C322.33468262 36.176521 321.66936523 36.35304199 320.98388672 36.53491211 C317.94833035 37.3385972 314.91168329 38.13808398 311.875 38.9375 C310.82828125 39.21529297 309.7815625 39.49308594 308.703125 39.77929688 C307.68476563 40.04677734 306.66640625 40.31425781 305.6171875 40.58984375 C304.68503418 40.83597412 303.75288086 41.08210449 302.79248047 41.33569336 C299.8758465 42.02953503 296.96166616 42.53950868 294 43 C293.88785156 41.88625 293.77570313 40.7725 293.66015625 39.625 C293.03491056 34.62303449 291.76841924 29.85394077 290.4375 25 C290.20353516 24.12988281 289.96957031 23.25976562 289.72851562 22.36328125 C289.15709256 20.24085272 288.58085043 18.11986406 288 16 C284.24104054 17.25298649 283.99756333 18.3146797 282.0625 21.6875 C260.05101227 57.38680363 221.12855363 80.90251491 181.09448242 90.68359375 C139.57823544 100.22413166 94.26230644 92.20326919 58 70 C36.79270579 56.10535934 18.52338283 39.15559372 5.15625 17.51171875 C4.7746875 17.01285156 4.393125 16.51398438 4 16 C3.34 16 2.68 16 2 16 Z " fill="#AA0556" transform="translate(169,304)"/>
<path d="M0 0 C1.65 0 3.3 0 5 0 C5.33 1.65 5.66 3.3 6 5 C10.22146546 5.35178879 11.71423428 4.51908705 15 2 C15.99 2.33 16.98 2.66 18 3 C17.979375 4.134375 17.95875 5.26875 17.9375 6.4375 C17.58422523 9.81575674 17.58422523 9.81575674 19 11 C21.32817964 11.36760731 23.6618385 11.70241581 26 12 C26 16.08378077 25.19287411 19.12315913 24 23 C25.98 23.33 27.96 23.66 30 24 C29.505 26.475 29.505 26.475 29 29 C27.35 29.33 25.7 29.66 24 30 C24.44009899 32.64059394 24.89495132 34.79573867 26.125 37.1875 C26.41375 37.785625 26.7025 38.38375 27 39 C26.505 39.99 26.505 39.99 26 41 C23.35139573 41.59355614 20.70802678 41.74209269 18 42 C18 44.31 18 46.62 18 49 C15.625 49.625 15.625 49.625 13 50 C12.34 49.34 11.68 48.68 11 48 C9.68 48 8.36 48 7 48 C6.01 50.475 6.01 50.475 5 53 C3.35 53 1.7 53 0 53 C-0.33 51.68 -0.66 50.36 -1 49 C-2.74671588 48.20643199 -2.74671588 48.20643199 -5 48 C-6.68756133 48.96432076 -8.35666496 49.96210419 -10 51 C-10.66 50.67 -11.32 50.34 -12 50 C-11.979375 48.865625 -11.95875 47.73125 -11.9375 46.5625 C-11.58422523 43.18424326 -11.58422523 43.18424326 -13 42 C-15.32817964 41.63239269 -17.6618385 41.29758419 -20 41 C-20.625 39.125 -20.625 39.125 -21 37 C-20.34 36.34 -19.68 35.68 -19 35 C-18.83312552 32.41645782 -18.83312552 32.41645782 -19 30 C-20.65 29.67 -22.3 29.34 -24 29 C-24 27.35 -24 25.7 -24 24 C-22.35 23.67 -20.7 23.34 -19 23 C-18.73781251 19.85375007 -18.75245633 18.38162983 -20.5 15.6875 C-20.995 15.130625 -21.49 14.57375 -22 14 C-21.34 13.01 -20.68 12.02 -20 11 C-16.375 10.8125 -16.375 10.8125 -13 11 C-12.67 8.36 -12.34 5.72 -12 3 C-11.01 2.67 -10.02 2.34 -9 2 C-7.64664105 2.97272675 -6.31337396 3.9739266 -5 5 C-4.01 5 -3.02 5 -2 5 C-1.34 3.35 -0.68 1.7 0 0 Z " fill="#91025B" transform="translate(399,206)"/>
<path d="M0 0 C2.31 0 4.62 0 7 0 C7.81357655 3.56225502 8.62567119 7.1248463 9.4375 10.6875 C9.66759766 11.69490234 9.89769531 12.70230469 10.13476562 13.74023438 C10.35712891 14.71669922 10.57949219 15.69316406 10.80859375 16.69921875 C11.01282959 17.59471436 11.21706543 18.49020996 11.42749023 19.4128418 C11.98553571 21.93463621 12.49347102 24.46735509 13 27 C14.98 18.09 16.96 9.18 19 0 C21.64 0 24.28 0 27 0 C27 12.54 27 25.08 27 38 C25.35 38 23.7 38 22 38 C21.505 26.12 21.505 26.12 21 14 C19.35 21.92 17.7 29.84 16 38 C14.35 38 12.7 38 11 38 C9.1422733 31.71230963 7.57329393 25.36468908 6 19 C5.67 25.27 5.34 31.54 5 38 C3.35 38 1.7 38 0 38 C0 25.46 0 12.92 0 0 Z " fill="#B40652" transform="translate(257,213)"/>
<path d="M0 0 C2.8100346 1.79363911 4.50940468 3.01880935 6 6 C6.08426094 7.6674606 6.10725143 9.33825187 6.09765625 11.0078125 C6.09443359 11.99394531 6.09121094 12.98007813 6.08789062 13.99609375 C6.07951172 15.02863281 6.07113281 16.06117188 6.0625 17.125 C6.05798828 18.16527344 6.05347656 19.20554688 6.04882812 20.27734375 C6.03701952 22.85161962 6.02055075 25.42578146 6 28 C3.66666667 28 1.33333333 28 -1 28 C-1.66 28.33 -2.32 28.66 -3 29 C-6.97357645 29.52981019 -8.54170381 29.31881474 -11.875 27 C-14.82360163 22.83726829 -14.7975483 21.02455429 -14 16 C-12.125 13.5 -12.125 13.5 -9 12 C-5.63744182 11.6919794 -2.3652967 11.76475596 1 12 C0.03223902 8.20452079 0.03223902 8.20452079 -2 5 C-3.66617115 4.95936168 -5.33388095 4.957279 -7 5 C-7.66 6.32 -8.32 7.64 -9 9 C-10.65 8.67 -12.3 8.34 -14 8 C-13.12269491 5.29497597 -12.28331029 3.31599994 -10.375 1.1875 C-6.9425183 -0.52874085 -3.71471198 -0.68545281 0 0 Z " fill="#AC0554" transform="translate(304,223)"/>
<path d="M0 0 C4.42302311 2.33213946 4.42302311 2.33213946 6 5 C6.50857356 8.81162503 6.28000641 12.12657802 6 16 C1.05 16 -3.9 16 -9 16 C-7.79321679 22.36866419 -7.79321679 22.36866419 -6 24 C-4.33382885 24.04063832 -2.66611905 24.042721 -1 24 C-0.34 22.68 0.32 21.36 1 20 C2.65 20.33 4.3 20.66 6 21 C5.68151851 23.97249386 4.96374181 25.03839103 2.875 27.25 C-0.77631152 29.47253745 -2.78791689 29.60172616 -7 29 C-10.22618733 26.9209015 -11.8669302 25.19960471 -14 22 C-14.60756055 16.49358284 -15.31685708 9.863797 -12.94921875 4.71484375 C-9.10497375 0.09948176 -5.83067978 -0.58306798 0 0 Z " fill="#9F0455" transform="translate(346,223)"/>
<path d="M0 0 C1.98 0 3.96 0 6 0 C7.32 2.31 8.64 4.62 10 7 C12.77000825 3.67913229 12.77000825 3.67913229 15 0 C16.65 0 18.3 0 20 0 C18.35445878 5.48513741 18.35445878 5.48513741 16.765625 7.79296875 C15.32813091 9.94477317 14.47084335 11.44087922 14 14 C15.18826981 17.18163546 16.71650201 19.822714 18.546875 22.6796875 C20 25 20 25 20 27 C17.8125 27.5 17.8125 27.5 15 27 C12.98728161 24.51946058 11.48112914 21.82359938 10 19 C8.68 21.64 7.36 24.28 6 27 C4.02 27 2.04 27 0 27 C0.63228516 25.86111328 0.63228516 25.86111328 1.27734375 24.69921875 C1.82519531 23.70535156 2.37304688 22.71148437 2.9375 21.6875 C3.75541016 20.20830078 3.75541016 20.20830078 4.58984375 18.69921875 C6.08354232 16.01437784 6.08354232 16.01437784 7 13 C5.56566837 10.00484043 5.56566837 10.00484043 3.5625 6.875 C0 1.06066536 0 1.06066536 0 0 Z " fill="#BF0752" transform="translate(231,224)"/>
<path d="M0 0 C1.65 0 3.3 0 5 0 C5 3.63 5 7.26 5 11 C7.31 11 9.62 11 12 11 C12 12.32 12 13.64 12 15 C9.69 15 7.38 15 5 15 C5.33 21.27 5.66 27.54 6 34 C7.98 34 9.96 34 12 34 C12.33 35.32 12.66 36.64 13 38 C10.15916359 39.42041821 8.14522722 39.31452272 5 39 C2.15219381 36.76793569 1.15002334 35.45007001 0 32 C-0.07973476 30.66474283 -0.10771338 29.32587917 -0.09765625 27.98828125 C-0.09282227 26.85229492 -0.09282227 26.85229492 -0.08789062 25.69335938 C-0.07951172 24.90767578 -0.07113281 24.12199219 -0.0625 23.3125 C-0.05798828 22.51521484 -0.05347656 21.71792969 -0.04882812 20.89648438 C-0.0370585 18.93095743 -0.01912348 16.96546915 0 15 C-0.99 15 -1.98 15 -3 15 C-3 13.68 -3 12.36 -3 11 C-2.01 11 -1.02 11 0 11 C0 7.37 0 3.74 0 0 Z " fill="#A50454" transform="translate(317,213)"/>
<path d="M0 0 C5.28 0 10.56 0 16 0 C16 1.32 16 2.64 16 4 C12.04 4 8.08 4 4 4 C4 8.29 4 12.58 4 17 C7.3 17 10.6 17 14 17 C14 18.32 14 19.64 14 21 C10.7 21 7.4 21 4 21 C4 26.61 4 32.22 4 38 C2.68 38 1.36 38 0 38 C0 25.46 0 12.92 0 0 Z " fill="#D40854" transform="translate(200,213)"/>
<path d="M0 0 C4.10238116 1.34259747 5.44380003 2.30374172 7.4375 6.125 C7.37771398 9.59258942 7.04715977 12.01326749 5.375 15.0625 C2.17257415 16.81866901 -1.05940726 16.74526592 -4.5625 16.125 C-7.0625 14.5625 -7.0625 14.5625 -8.5625 12.125 C-9.28718526 7.69636786 -9.05704049 5.84433162 -6.5 2.125 C-3.5625 0.125 -3.5625 0.125 0 0 Z " fill="#040003" transform="translate(402.5625,223.875)"/>
<path d="M0 0 C0.99 0 1.98 0 3 0 C3 15.18 3 30.36 3 46 C2.01 46 1.02 46 0 46 C0 30.82 0 15.64 0 0 Z " fill="#A0035B" transform="translate(362,209)"/>
<path d="M0 0 C1.65 0 3.3 0 5 0 C5 8.91 5 17.82 5 27 C3.35 27 1.7 27 0 27 C0 18.09 0 9.18 0 0 Z " fill="#C1074F" transform="translate(221,224)"/>
<path d="M0 0 C2.01822917 0.06510417 4.03645833 0.13020833 6.0546875 0.1953125 C5.4546875 6.5553125 5.4546875 6.5553125 3.8046875 9.1953125 C2.0546875 10.1953125 2.0546875 10.1953125 -0.5078125 10.0078125 C-2.9453125 9.1953125 -2.9453125 9.1953125 -4.9453125 7.1953125 C-4.58410177 3.58320518 -4.17111606 0.41878675 0 0 Z " fill="#0B0005" transform="translate(298.9453125,237.8046875)"/>
<path d="M0 0 C5.56818182 0.56818182 5.56818182 0.56818182 7 2 C7.04080783 3.99958364 7.04254356 6.00045254 7 8 C3.7 8 0.4 8 -3 8 C-2.25 2.25 -2.25 2.25 0 0 Z " fill="#050003" transform="translate(340,227)"/>
<path d="M0 0 C1.65 0.33 3.3 0.66 5 1 C4.67 2.65 4.34 4.3 4 6 C2.35 5.67 0.7 5.34 -1 5 C-0.67 3.35 -0.34 1.7 0 0 Z " fill="#C20750" transform="translate(222,214)"/>
</svg>
